<?xml version="1.0" standalone="no"?>
<!DOCTYPE svg PUBLIC "-//W3C//DTD SVG 20010904//EN"
 "http://www.w3.org/TR/2001/REC-SVG-20010904/DTD/svg10.dtd">
<svg version="1.0" xmlns="http://www.w3.org/2000/svg"
 width="1024.000000pt" height="1024.000000pt" viewBox="0 0 1024.000000 1024.000000"
 preserveAspectRatio="xMidYMid meet">

<g transform="translate(0.000000,1024.000000) scale(0.100000,-0.100000)"
fill="#000000" stroke="none">
<path d="M2492 6533 l3 -1298 482 -3 481 -2 6 27 c3 16 17 96 32 178 34 191
68 296 154 470 151 306 384 543 683 694 190 96 339 138 602 168 l70 8 3 528 2
527 -1260 0 -1260 0 2 -1297z"/>
<path d="M5240 6530 l0 -1300 1250 0 1250 0 0 1300 0 1300 -1250 0 -1250 0 0
-1300z"/>
<path d="M2497 5003 c-9 -8 -9 -2555 -1 -2577 6 -14 126 -16 1260 -16 l1254 0
-2 1298 -3 1297 -1251 3 c-688 1 -1254 -1 -1257 -5z"/>
<path d="M6786 4994 c-9 -8 -16 -29 -16 -45 0 -57 -51 -291 -86 -392 -114
-332 -336 -628 -619 -823 -199 -138 -469 -231 -725 -252 l-95 -7 -3 -535 -2
-535 1250 3 1250 2 0 1300 0 1300 -469 0 c-414 0 -471 -2 -485 -16z"/>
</g>
</svg>
